<svg xmlns="http://www.w3.org/2000/svg" version="1" width="211" height="37.97" viewBox="0 0 2600 468" preserveAspectRatio="xMidYMid meet">
  <g transform="translate(0.000000,468.000000) scale(0.100000,-0.100000)" fill="#FFB600" stroke="none">
    <path d="M777 2347c-427-1282-777-2335-777-2340 0-4 528-7 1174-7l1173 0 776 2324c427 1277 779 2330 783 2340 6 15-82 16-1172 16l-1179 0-778-2333z"/>
    <path d="M4745 4668c-8-21-1555-4663-1555-4666 0-1 529-1 1176 0l1176 3 779 2330c428 1282 779 2333 779 2338 0 4-529 7-1175 7-931 0-1177-3-1180-12z" fill-opacity="0.5"/>
    <path d="M7162 2340l-780-2340 1176 0 1177 0 781 2340 781 2340-1178 0-1177 0-780-2340z" fill-opacity="0.25"/>
    <path d="M19506 4665c-655-107-1164-604-1370-1340-181-648 23-1064 570-1160 104-18 351-21 469-5 457 62 851 317 1130 730 126 188 253 495 307 741 18 86 22 136 23 284 0 159-3 189-23 260-35 120-76 190-167 281-66 68-96 89-175 127-150 73-228 88-470 93-147 2-230-1-294-11zm301-454c95-42 152-127 173-256 36-223-118-732-307-1019-72-109-193-223-289-274-112-58-193-75-325-70-91 4-115 8-162 32-108 53-155 136-164 293-15 252 146 741 328 997 114 159 267 273 416 311 91 23 264 15 330-14z"/>
    <path d="M24938 4669c-328-42-645-187-896-409-291-257-513-656-603-1085-34-158-34-395-1-510 36-124 85-206 174-290 241-227 658-281 1313-170 322 54 446 129 545 329 70 142 271 768 273 852 1 58-20 99-57 114-13 4-202 10-422 12-399 3-399 3-449-20-94-43-147-117-149-208-2-99 45-123 256-131 81-3 148-9 148-12 0-3-38-121-84-261l-83-255-49-13c-70-19-422-28-508-13-284 50-351 254-224 691 152 526 388 819 744 922 67 19 102 23 229 23 144 0 156-2 285-39 231-66 274-76 321-76 163 0 299 126 299 279 0 50-4 64-27 92-56 66-246 133-476 168-145 22-424 27-559 10z"/>
    <path d="M12534 4621c-155-25-287-108-346-218-21-39-539-1616-604-1838-11-38-18-95-18-155-1-83 2-99 21-126 56-79 138-87 753-81 516 6 547 9 719 66 377 126 629 407 676 752 3 26 1 74-4 108-26 163-123 268-291 317l-75 22 45 11c332 86 597 390 617 706 15 246-108 363-440 421-73 13-187 17-547 19-250 2-478 0-506-4zm551-381c160-14 219-36 268-102 66-89-4-306-133-414-111-92-246-124-522-124l-179 0 6 23c17 55 198 613 202 620 6 10 226 9 358-3zm-150-983c181-54 231-142 174-309-69-205-185-306-393-343-115-20-531-22-524-2 7 16 204 626 213 656l7 23 237-5c168-3 250-9 286-20z"/>
    <path d="M14965 4619c-180-24-301-132-384-344-54-139-553-1687-569-1765-27-131-1-224 76-276 48-33 112-36 777-32l600 3 55 26c110 51 177 139 186 243 6 62-16 110-65 143l-34 23-473 0c-261 0-474 3-474 6 0 4 41 134 92 290l92 283 435 3c433 3 436 3 479 26 60 32 118 87 150 141 37 63 38 150 3 200-47 65-51 66-508 69-227 2-413 5-413 7 0 2 38 120 84 262l84 258 474 5c469 5 473 5 516 28 60 32 118 87 150 141 21 36 27 59 27 108 0 70-19 104-76 138-33 19-53 20-624 21-324 1-621-2-660-7z"/>
    <path d="M16670 4612c-71-27-103-47-147-95-60-65-77-103-78-172 0-73 27-118 89-146 36-16 69-19 290-19 194 0 247-3 244-12-57-157-541-1672-545-1707-7-63 12-144 44-182 133-158 458-47 571 194 24 50 233 685 518 1569l44 137 263 3 262 3 55 28c196 100 251 318 100 395l-44 22-811-1c-732 0-814-2-855-17z"/>
    <path d="M21546 4619c-113-27-235-132-294-252-25-53-599-1799-632-1926-39-148 79-261 240-231 103 20 214 97 266 185 13 24 122 341 240 706 119 365 219 670 223 677 4 7 123-271 271-630 277-675 330-795 381-852 150-172 430-94 553 153 46 91 100 251 373 1086 307 945 304 932 250 1013-16 24-44 48-72 62-122 59-324-27-410-175-13-22-121-339-239-705-119-366-217-668-219-672-1-4-121 282-266 635-146 353-282 677-303 720-88 177-204 243-362 206z"/>
    <path d="M11702 1630c-148-39-256-120-312-233-56-115-51-221 19-360 27-54 35-79 27-85-6-5-54-33-106-62-254-141-376-262-431-427-17-52-21-81-17-147 6-99 27-145 98-209 90-81 213-113 403-104 173 7 297 53 455 169l66 48 44-78c55-95 79-122 109-122 55 0 133 69 133 118 0 14-25 68-55 118-30 51-55 96-55 99 0 4 22 35 49 69 129 161 312 522 296 583-12 49-100 56-143 10-12-13-40-67-62-122-22-54-59-132-81-174-45-82-141-231-149-231-3 1-66 101-141 223l-136 222 106 70c257 169 381 376 309 515-58 112-239 159-426 110zm188-155c77-40 66-136-26-235-61-66-220-184-235-174-6 3-22 31-36 62-57 130-49 219 26 292 26 25 62 51 81 57 53 17 156 15 190-2zm-207-894c82-134 147-244 145-245-2-1-26-19-55-39-70-49-177-102-248-122-67-20-190-23-251-6-112 30-179 115-178 226 0 81 30 143 99 209 82 79 304 228 330 222 6-2 77-112 158-245z"/>
    <path d="M17463 1560c-23-5-71-18-108-29-296-92-492-370-402-573 48-108 117-150 445-273 40-15 94-41 120-59 174-116 73-350-187-432-25-8-89-18-142-21-163-10-289 32-400 132-22 19-50 35-63 35-43 0-106-68-106-115 0-20 68-94 120-130 100-69 277-103 446-86 135 14 202 33 314 88 161 78 281 216 316 363 28 115 11 189-60 267-43 49-123 89-312 158-172 63-225 93-264 147-52 72-34 163 49 244 86 84 220 128 371 122 124-5 191-31 269-104 71-66 110-72 160-25 25 23 31 37 31 70 0 35-7 47-53 94-62 64-134 103-226 123-71 15-250 17-318 4z"/>
    <path d="M24440 1556c-146-33-244-79-342-163-99-84-151-171-170-282-10-61-10-77 5-124 19-60 71-127 127-162 45-28 149-73 295-127 152-56 191-83 227-152 51-99-30-244-175-318-111-56-276-73-405-43-80 19-124 42-203 105-34 27-72 50-84 50-41 0-105-69-105-113 0-7 17-33 37-57 107-124 307-185 533-161 131 14 200 34 310 87 78 39 109 61 176 128 86 87 123 151 143 244 23 110 9 179-51 247-52 59-113 92-308 165-195 72-241 97-281 153-28 37-30 48-26 93 7 64 24 98 77 150 84 84 219 128 370 122 124-5 191-31 269-104 48-44 65-54 94-54 43 0 84 32 96 75 11 39 2 60-47 116-50 56-140 105-229 124-81 17-257 18-333 1z"/>
    <path d="M13676 1546c-46-17-92-59-115-106-19-37-427-1287-437-1340-19-91 141-93 179-1 7 16 100 299 207 629 107 330 196 599 197 598 2-1 36-265 78-587 41-321 78-595 81-609 18-80 125-89 202-17 13 12 231 289 485 614 253 326 462 591 464 589 2-1-85-273-192-603-107-331-195-612-195-626 0-35 25-57 66-57 46 0 90 24 108 58 7 15 109 319 225 676 232 715 234 725 180 770-58 49-162 31-237-42-26-26-250-308-497-626-248-319-451-573-452-565-2 8-32 263-68 568-36 305-70 573-76 597-16 61-47 87-111 91-30 2-70-3-92-11z"/>
    <path d="M16142 1543c-18-8-54-39-81-68-66-73-981-1319-994-1356-9-24-9-35 3-57 13-22 24-28 61-30 63-4 79 11 229 222l125 175 372 1 372 0 5-52c3-29 11-114 16-188 9-107 14-138 28-148 23-18 102-10 135 14 54 40 54 25-2 682-63 744-65 758-102 794-23 24-36 28-81 28-29 0-68-8-86-17zm53-524c14-195 25-373 25-396l0-43-311 0c-177 0-309 4-307 9 6 15 563 789 566 786 2-1 14-162 27-356z"/>
    <path d="M18533 1540c-18-10-38-32-46-47-14-27-439-1327-453-1386-4-18-1-36 10-52 33-50 146-23 179 42 10 20 191 566 230 697 2 5 105-162 230-371 125-210 234-384 243-387 84-32 196 57 167 133-6 16-101 179-212 361-187 307-201 333-184 345 343 247 751 557 766 583 36 61-3 112-76 98-24-5-163-103-467-333-239-179-431-320-428-312 14 38 177 547 182 570 4 19-1 35-15 53-25 32-79 35-126 6z"/>
    <path d="M19922 1543c-19-9-40-26-48-37-14-22-446-1344-459-1403-9-45 21-73 77-73 60 0 104 33 127 95 50 134 441 1354 441 1377 0 53-72 74-138 41z"/>
    <path d="M20550 1544c-42-18-68-41-86-76-17-32-429-1296-443-1356-8-38-7-46 10-63 33-33 121-19 158 25 7 9 100 282 206 608 162 496 195 589 203 568 5-14 96-284 203-600 148-441 199-580 218-597 27-26 105-32 144-12 32 17 77 60 92 89 15 30 432 1311 441 1356 5 25 1 37-15 53-46 46-138 13-171-62-10-23-100-295-201-604-100-310-185-563-188-563-3 0-91 251-195 558-104 306-198 581-208 610-29 78-87 101-168 66z"/>
    <path d="M23132 1543c-18-8-54-39-80-68-39-43-896-1200-976-1319-14-21-26-49-26-62 0-62 92-87 147-40 15 13 84 103 153 199l125 176 372 1 372 0 5-42c3-24 10-108 16-188 8-117 14-148 28-158 23-18 102-10 135 14 56 41 56 21-6 733-31 361-62 673-67 693-15 53-51 78-114 78-28 0-66-8-84-17zm54-520c13-191 24-369 24-395l0-48-311 0c-171 0-309 4-307 9 6 16 563 788 566 785 2-1 15-159 28-351z"/>
  </g>
</svg>